<svg width="72" height="72" viewBox="0 0 72 72" fill="none" xmlns="http://www.w3.org/2000/svg">
<g clip-path="url(#clip0_206_37)">
<path d="M36 72C55.8823 72 72 55.8823 72 36C72 16.1177 55.8823 0 36 0C16.1177 0 0 16.1177 0 36C0 55.8823 16.1177 72 36 72Z" fill="#425139"/>
<path d="M33.8561 18.619H32.8046C32.6349 18.619 32.4721 18.5515 32.352 18.4315C32.232 18.3115 32.1646 18.1486 32.1646 17.9789C32.1646 17.8091 32.232 17.6463 32.352 17.5263C32.4721 17.4062 32.6349 17.3388 32.8046 17.3388H34.4954C34.5795 17.3388 34.6627 17.3554 34.7404 17.3875C34.818 17.4197 34.8886 17.4668 34.948 17.5263C35.0075 17.5857 35.0546 17.6563 35.0868 17.7339C35.119 17.8116 35.1355 17.8948 35.1355 17.9789V18.5894C35.1356 18.7567 35.0702 18.9173 34.9533 19.0369C34.8364 19.1565 34.6774 19.2257 34.5102 19.2295C34.343 19.2334 34.181 19.1717 34.0587 19.0576C33.9365 18.9434 33.8637 18.786 33.8561 18.619Z" fill="white"/>
<path d="M38.1439 18.619H39.1954C39.3651 18.619 39.5279 18.5515 39.648 18.4315C39.768 18.3115 39.8355 18.1486 39.8355 17.9789C39.8355 17.8091 39.768 17.6463 39.648 17.5263C39.5279 17.4062 39.3651 17.3388 39.1954 17.3388H37.5046C37.4205 17.3388 37.3373 17.3554 37.2596 17.3875C37.182 17.4197 37.1114 17.4668 37.052 17.5263C36.9925 17.5857 36.9454 17.6563 36.9132 17.7339C36.8811 17.8116 36.8645 17.8948 36.8645 17.9789V18.5894C36.8645 18.7567 36.9299 18.9173 37.0467 19.0369C37.1636 19.1565 37.3226 19.2257 37.4898 19.2295C37.657 19.2334 37.819 19.1717 37.9413 19.0576C38.0635 18.9434 38.1363 18.786 38.1439 18.619Z" fill="white"/>
<path d="M20.2066 49.746H51.7937C52.6867 49.746 53.5431 50.1007 54.1745 50.7321C54.8059 51.3636 55.1606 52.22 55.1606 53.1129C55.1606 54.0059 54.8059 54.8623 54.1745 55.4937C53.5431 56.1252 52.6867 56.4799 51.7937 56.4799H20.2066C19.3136 56.4799 18.4572 56.1252 17.8258 55.4937C17.1943 54.8623 16.8396 54.0059 16.8396 53.1129C16.8396 52.22 17.1943 51.3636 17.8258 50.7321C18.4572 50.1007 19.3136 49.746 20.2066 49.746ZM51.7937 51.0261H20.2066C19.6531 51.0261 19.1223 51.246 18.731 51.6373C18.3396 52.0287 18.1198 52.5595 18.1198 53.1129C18.1198 53.6664 18.3396 54.1972 18.731 54.5885C19.1223 54.9799 19.6531 55.1997 20.2066 55.1997H51.7937C52.3471 55.1997 52.8779 54.9799 53.2693 54.5885C53.6606 54.1972 53.8805 53.6664 53.8805 53.1129C53.8805 52.5595 53.6606 52.0287 53.2693 51.6373C52.8779 51.246 52.3471 51.0261 51.7937 51.0261Z" fill="white"/>
<path d="M53.4372 38.6314C53.6035 38.6014 53.7511 38.5068 53.8479 38.3683C53.9446 38.2297 53.9827 38.0586 53.9536 37.8921C53.9246 37.7256 53.8308 37.5774 53.6929 37.4799C53.5549 37.3823 53.384 37.3433 53.2173 37.3714C53.2003 37.3743 47.3011 38.3376 44.7813 44.6974C44.7505 44.7752 44.7353 44.8583 44.7365 44.942C44.7378 45.0257 44.7555 45.1084 44.7887 45.1852C44.822 45.262 44.87 45.3316 44.9301 45.3899C44.9901 45.4482 45.0611 45.494 45.1389 45.5249C45.2168 45.5558 45.2999 45.571 45.3836 45.5697C45.4673 45.5684 45.5499 45.5507 45.6268 45.5175C45.7036 45.4843 45.7731 45.4363 45.8314 45.3762C45.8897 45.3161 45.9356 45.2451 45.9665 45.1673C48.2189 39.4829 53.4225 38.634 53.4374 38.6314H53.4372Z" fill="white"/>
<path d="M53.7898 38.4413C53.9065 38.3186 53.9697 38.1546 53.9654 37.9853C53.9612 37.816 53.8899 37.6554 53.7672 37.5387C53.6445 37.4219 53.4805 37.3588 53.3112 37.363C53.1419 37.3672 52.9813 37.4385 52.8646 37.5612C52.8552 37.5711 49.5269 41.0376 48.8513 44.8858C48.8363 44.9687 48.8379 45.0538 48.8559 45.1362C48.874 45.2185 48.9081 45.2965 48.9564 45.3656C49.0047 45.4347 49.0661 45.4936 49.1372 45.5388C49.2083 45.5841 49.2877 45.6149 49.3707 45.6293C49.4538 45.6438 49.5389 45.6418 49.6211 45.6233C49.7033 45.6047 49.7811 45.5702 49.8499 45.5215C49.9187 45.4728 49.9773 45.411 50.0221 45.3396C50.067 45.2683 50.0973 45.1887 50.1113 45.1056C50.7199 41.6388 53.7809 38.4502 53.7895 38.4411L53.7898 38.4413Z" fill="white"/>
<path d="M38.0868 44.9323V21.5621C38.0868 21.3923 38.1542 21.2295 38.2743 21.1095C38.3943 20.9894 38.5571 20.922 38.7269 20.922C38.8966 20.922 39.0594 20.9894 39.1795 21.1095C39.2995 21.2295 39.367 21.3923 39.367 21.5621V44.2922H48.8962C49.7891 44.2922 50.6455 44.647 51.277 45.2784C51.9084 45.9098 52.2631 46.7662 52.2631 47.6592C52.2631 48.5522 51.9084 49.4086 51.277 50.04C50.6455 50.6714 49.7891 51.0262 48.8962 51.0262H23.1038C22.2109 51.0262 21.3545 50.6714 20.723 50.04C20.0916 49.4086 19.7369 48.5522 19.7369 47.6592C19.7369 46.7662 20.0916 45.9098 20.723 45.2784C21.3545 44.647 22.2109 44.2922 23.1038 44.2922H27.2206C28.1424 44.2922 29.0071 44.3201 29.731 44.3434C31.2293 44.3914 32.0196 44.4168 32.2932 44.1595C32.6143 43.8578 32.6174 42.8765 32.6239 40.8014C32.6254 40.3313 32.627 39.81 32.6333 39.2383C32.6765 35.3479 32.6621 31.0246 32.6484 26.8526C32.6426 25.0452 32.6364 23.2658 32.6354 21.5626C32.6354 21.3935 32.7026 21.2314 32.8221 21.1118C32.9417 20.9923 33.1038 20.9251 33.2729 20.9251C33.4419 20.9251 33.6041 20.9923 33.7236 21.1118C33.8432 21.2314 33.9103 21.3935 33.9103 21.5626C33.9113 23.2658 33.9173 25.0452 33.9233 26.8526C33.937 31.0282 33.9514 35.3556 33.9082 39.2482C33.9019 39.8237 33.9 40.338 33.8988 40.8014C33.8911 43.2538 33.8873 44.4134 33.168 45.0895C32.5094 45.709 31.536 45.6778 29.6906 45.6185C29.039 45.5976 28.261 45.5724 27.2203 45.5724H23.1036C22.5501 45.5724 22.0194 45.7923 21.628 46.1836C21.2367 46.575 21.0168 47.1057 21.0168 47.6592C21.0168 48.2127 21.2367 48.7434 21.628 49.1348C22.0194 49.5261 22.5501 49.746 23.1036 49.746H33.2729C34.5497 49.7502 35.7766 49.2503 36.6869 48.355C37.1316 47.9176 37.4844 47.3958 37.7248 46.8202C37.9652 46.2446 38.0883 45.6269 38.0868 45.0031V44.9323ZM37.5818 49.265C37.4084 49.4363 37.2248 49.5969 37.032 49.746H48.8959C49.4494 49.746 49.9802 49.5261 50.3715 49.1348C50.7629 48.7434 50.9827 48.2127 50.9827 47.6592C50.9827 47.1057 50.7629 46.575 50.3715 46.1836C49.9802 45.7923 49.4494 45.5724 48.8959 45.5724H39.3398C39.2074 46.9721 38.5847 48.2799 37.5816 49.265H37.5818Z" fill="white"/>
<path d="M33.0105 33.3595C33.0871 33.3944 33.1698 33.4139 33.2539 33.4168C33.338 33.4196 33.4218 33.4059 33.5006 33.3763C33.5794 33.3466 33.6515 33.3018 33.7129 33.2442C33.7742 33.1866 33.8236 33.1175 33.8582 33.0408C33.8928 32.9641 33.9119 32.8813 33.9144 32.7972C33.9169 32.7131 33.9027 32.6293 33.8728 32.5506C33.8428 32.472 33.7976 32.4001 33.7397 32.339C33.6819 32.2779 33.6125 32.2288 33.5357 32.1946C32.075 31.5353 30.7382 30.2719 29.7593 28.403C28.8605 26.6878 28.2629 24.467 28.1409 21.7385C28.1393 21.7003 28.1383 21.6331 28.1383 21.5374C28.1383 20.2694 28.679 19.1189 29.5382 18.2705C30.4347 17.3855 31.6265 16.8629 32.8848 16.8031C32.9306 16.8012 33.0057 16.8 33.1092 16.8H38.8903C38.994 16.8 39.0689 16.8012 39.1147 16.8031C40.373 16.8627 41.5649 17.3853 42.4613 18.2705C43.3205 19.1189 43.8612 20.2694 43.8612 21.5371C43.8612 21.6329 43.8602 21.7001 43.8585 21.7382C43.7366 24.467 43.1393 26.6873 42.2405 28.4026C41.2613 30.2714 39.9247 31.5346 38.4638 32.1943C38.387 32.2285 38.3176 32.2776 38.2598 32.3387C38.2019 32.3998 38.1567 32.4718 38.1267 32.5504C38.0968 32.629 38.0826 32.7128 38.0851 32.7969C38.0876 32.881 38.1067 32.9638 38.1413 33.0405C38.1759 33.1173 38.2253 33.1864 38.2866 33.2439C38.348 33.3015 38.4201 33.3464 38.4989 33.376C38.5777 33.4056 38.6615 33.4194 38.7456 33.4165C38.8297 33.4137 38.9124 33.3942 38.9889 33.3593C40.6977 32.5877 42.2498 31.1316 43.3706 28.9925C44.3517 27.12 45.0031 24.719 45.1337 21.7932C45.1387 21.6785 45.1413 21.5928 45.1413 21.5371C45.1413 19.9128 44.4518 18.4421 43.3562 17.3602C42.2345 16.2539 40.7434 15.6013 39.1697 15.5278C39.0485 15.5225 38.9551 15.5196 38.8901 15.5196H33.1089C33.0439 15.5196 32.9505 15.5225 32.8293 15.5278C31.2556 15.6013 29.7646 16.2538 28.6428 17.3599C27.5472 18.4416 26.8577 19.9126 26.8577 21.5369C26.8577 21.5929 26.8602 21.6782 26.8653 21.793C26.9959 24.7188 27.6473 27.12 28.6284 28.9925C29.7492 31.1316 31.3015 32.5877 33.0101 33.359L33.0105 33.3595Z" fill="white"/>
<path d="M39.8355 16.1599V20.5848C39.8356 20.676 39.8162 20.7662 39.7786 20.8493C39.5666 21.4393 39.2554 21.9887 38.8584 22.4738C38.4655 22.9538 37.9939 23.3664 37.458 23.723L37.4587 23.7242C37.3538 23.7943 37.2304 23.8316 37.1043 23.8315H34.896C34.7548 23.8317 34.6175 23.7849 34.5058 23.6986C33.985 23.3474 33.5259 22.9428 33.1419 22.4738C32.7331 21.9742 32.4154 21.4066 32.203 20.797L32.2013 20.7977C32.1759 20.726 32.1636 20.6503 32.1648 20.5742V16.1604C32.1648 16.0763 32.1814 15.9931 32.2135 15.9155C32.2457 15.8378 32.2929 15.7672 32.3523 15.7078C32.4117 15.6484 32.4823 15.6012 32.56 15.569C32.6376 15.5369 32.7208 15.5203 32.8049 15.5203H39.1956C39.2797 15.5203 39.3629 15.5369 39.4406 15.569C39.5182 15.6012 39.5888 15.6484 39.6482 15.7078C39.7077 15.7672 39.7548 15.8378 39.787 15.9155C39.8192 15.9931 39.8357 16.0763 39.8357 16.1604L39.8355 16.1599ZM38.5553 20.4773V16.8H33.4447V20.4773C33.6078 20.9074 33.8399 21.3081 34.1319 21.6636C34.4111 22.0009 34.7341 22.2994 35.0923 22.5511H36.9079C37.2662 22.2994 37.5892 22.0009 37.8684 21.6636C38.1603 21.3081 38.3924 20.9074 38.5555 20.4773H38.5553Z" fill="white"/>
<path d="M36.6401 23.1912C36.6401 23.0215 36.5726 22.8587 36.4526 22.7386C36.3326 22.6186 36.1698 22.5511 36 22.5511C35.8302 22.5511 35.6674 22.6186 35.5474 22.7386C35.4274 22.8587 35.3599 23.0215 35.3599 23.1912V25.3217C35.3599 25.4915 35.4274 25.6543 35.5474 25.7743C35.6674 25.8944 35.8302 25.9618 36 25.9618C36.1698 25.9618 36.3326 25.8944 36.4526 25.7743C36.5726 25.6543 36.6401 25.4915 36.6401 25.3217V23.1912Z" fill="white"/>
<path d="M34.5401 26.0289C34.4304 26.157 34.3759 26.3234 34.3884 26.4916C34.401 26.6598 34.4797 26.8161 34.6072 26.9265C34.7348 27.0368 34.9008 27.0922 35.0691 27.0805C35.2373 27.0687 35.3941 26.9909 35.5051 26.8639L36 26.2944L36.4949 26.8639C36.5496 26.9277 36.6163 26.9802 36.6913 27.0181C36.7663 27.0561 36.8481 27.0789 36.9319 27.0852C37.0157 27.0914 37.1 27.0811 37.1798 27.0547C37.2596 27.0283 37.3334 26.9864 37.397 26.9314C37.4606 26.8764 37.5127 26.8094 37.5503 26.7342C37.5878 26.659 37.6102 26.5771 37.616 26.4932C37.6219 26.4094 37.6111 26.3252 37.5843 26.2455C37.5575 26.1658 37.5152 26.0922 37.4599 26.0289L36.515 24.9415C36.458 24.8644 36.3844 24.8011 36.2997 24.7563C36.215 24.7114 36.1212 24.6862 36.0255 24.6824C35.9297 24.6786 35.8342 24.6963 35.7462 24.7343C35.6582 24.7723 35.5798 24.8296 35.5169 24.9019L35.5174 24.9041L34.5401 26.0289Z" fill="white"/>
</g>
<defs>
<clipPath id="clip0_206_37">
<rect width="72" height="72" fill="white"/>
</clipPath>
</defs>
</svg>
