<svg width="25" height="25" viewBox="0 0 25 25" fill="none" xmlns="http://www.w3.org/2000/svg">
<path d="M22.2222 0H2.77778C1.24306 0 0 1.24306 0 2.77778V22.2222C0 23.7569 1.24306 25 2.77778 25H22.2222C23.7569 25 25 23.7569 25 22.2222V2.77778C25 1.24306 23.7569 0 22.2222 0ZM8.33333 19.4444H4.82917V9.72222H8.33333V19.4444ZM6.51944 7.94028C5.44861 7.94028 4.73333 7.22639 4.73333 6.27361C4.73333 5.32083 5.44722 4.60694 6.6375 4.60694C7.70833 4.60694 8.42361 5.32083 8.42361 6.27361C8.42361 7.22639 7.70972 7.94028 6.51944 7.94028ZM20.8333 19.4444H17.4417V14.1306C17.4417 12.6611 16.5375 12.3222 16.1986 12.3222C15.8597 12.3222 14.7292 12.5486 14.7292 14.1306C14.7292 14.3569 14.7292 19.4444 14.7292 19.4444H11.225V9.72222H14.7292V11.0792C15.1806 10.2875 16.0847 9.72222 17.7806 9.72222C19.4764 9.72222 20.8333 11.0792 20.8333 14.1306V19.4444Z" fill="black"/>
</svg>
