<svg width="25" height="25" viewBox="0 0 25 25" fill="none" xmlns="http://www.w3.org/2000/svg">
<path d="M12.5 0C5.5957 0 0 5.5957 0 12.5C0 19.4043 5.5957 25 12.5 25C19.4043 25 25 19.4043 25 12.5C25 5.5957 19.4043 0 12.5 0ZM12.5 2.5C18.0127 2.5 22.5 6.98731 22.5 12.5C22.5 13.0859 22.4414 13.6621 22.3438 14.2188C22.0361 14.1504 21.582 14.0674 21.0547 14.0625C20.6641 14.0576 20.1758 14.1211 19.7656 14.1797C19.9072 13.7451 20 13.2666 20 12.7734C20 11.5723 19.4141 10.4541 18.4766 9.53125C18.7354 8.56934 18.9893 6.91895 18.3203 6.25C16.3428 6.25 15.249 7.66113 15.1953 7.73438C14.585 7.58789 13.9551 7.5 13.2812 7.5C12.417 7.5 11.5918 7.65625 10.8203 7.89062L11.0547 7.69531C11.0547 7.69531 9.95605 6.17188 7.92969 6.17188C7.22168 6.88477 7.54394 8.69141 7.8125 9.60938C6.85547 10.5225 6.25 11.6016 6.25 12.7734C6.25 13.1836 6.34766 13.5742 6.44531 13.9453C6.09863 13.9062 4.84863 13.7891 4.33594 13.7891C3.88184 13.7891 3.17871 13.8965 2.61719 14.0234C2.53906 13.5254 2.5 13.0176 2.5 12.5C2.5 6.98731 6.98731 2.5 12.5 2.5ZM4.33594 14.1016C4.8291 14.1016 6.32812 14.2773 6.52344 14.2969C6.54785 14.3652 6.57227 14.4287 6.60156 14.4922C6.06445 14.4434 5.02441 14.3701 4.33594 14.4531C3.87695 14.5068 3.29102 14.6729 2.77344 14.8047C2.73438 14.6484 2.68555 14.4971 2.65625 14.3359C3.20312 14.2188 3.9209 14.1016 4.33594 14.1016ZM21.0547 14.375C21.5527 14.3799 22.0068 14.4629 22.3047 14.5312C22.29 14.6143 22.2461 14.6826 22.2266 14.7656C21.9092 14.6924 21.3867 14.585 20.7812 14.5703C20.4883 14.5654 20.0195 14.5801 19.6094 14.6094C19.6289 14.5703 19.6338 14.5312 19.6484 14.4922C20.0732 14.4336 20.6152 14.3701 21.0547 14.375ZM5.11719 14.7266C5.82031 14.7314 6.47949 14.7803 6.75781 14.8047C7.41211 16.0254 8.73535 16.9287 10.7812 17.3047C10.2783 17.583 9.8291 17.9736 9.49219 18.4375C9.19922 18.4619 8.8916 18.4766 8.59375 18.4766C7.72461 18.4766 7.18262 17.7002 6.71875 17.0312C6.25 16.3623 5.67383 16.2891 5.35156 16.25C5.02441 16.2109 4.91211 16.3965 5.07812 16.5234C6.03027 17.2559 6.37207 18.125 6.75781 18.9062C7.10449 19.6094 7.83203 20 8.63281 20H8.78906C8.76465 20.1367 8.75 20.2637 8.75 20.3906V21.7578C5.86426 20.5908 3.66699 18.125 2.85156 15.0781C3.36426 14.9512 3.94043 14.8193 4.375 14.7656C4.57519 14.7412 4.8291 14.7217 5.11719 14.7266ZM20.7812 14.8828C21.3428 14.8975 21.8408 15.0049 22.1484 15.0781C21.46 17.666 19.7607 19.8193 17.5 21.1328V20.3906C17.5 19.3262 16.6602 17.959 15.4688 17.3047C17.4463 16.9434 18.7354 16.0791 19.4141 14.9219C19.8877 14.8877 20.4443 14.873 20.7812 14.8828ZM13.125 20C13.4668 20 13.75 20.2832 13.75 20.625V22.4219C13.3398 22.4756 12.9248 22.5 12.5 22.5V20.625C12.5 20.2832 12.7832 20 13.125 20ZM10.625 21.25C10.9668 21.25 11.25 21.5332 11.25 21.875V22.4219C10.8301 22.3682 10.4053 22.29 10 22.1875V21.875C10 21.5332 10.2832 21.25 10.625 21.25ZM15.625 21.25C15.9277 21.25 16.1914 21.4697 16.25 21.7578C15.8447 21.9238 15.4297 22.0752 15 22.1875V21.875C15 21.5332 15.2832 21.25 15.625 21.25Z" fill="black"/>
</svg>
