<svg width="26" height="25" viewBox="0 0 26 25" fill="none" xmlns="http://www.w3.org/2000/svg">
<path d="M12.7188 11.6585C14.2648 11.6585 15.7474 11.0443 16.8406 9.95113C17.9338 8.85793 18.548 7.37524 18.548 5.82923C18.548 4.28323 17.9338 2.80054 16.8406 1.70734C15.7474 0.61415 14.2648 0 12.7188 0C11.1727 0 9.69005 0.61415 8.59686 1.70734C7.50367 2.80054 6.88952 4.28323 6.88952 5.82923C6.88952 7.37524 7.50367 8.85793 8.59686 9.95113C9.69005 11.0443 11.1727 11.6585 12.7188 11.6585ZM12.7188 14.2196C4.96841 14.2196 0 18.4965 0 20.5789V24.4674H25.4375V20.5789C25.4375 18.0606 20.7339 14.2196 12.7188 14.2196Z" fill="black"/>
</svg>
